#!OML:ASF F:\VICON\USERDATA\INSTALL\rory3\rory3.ASF
:FULLY-SPECIFIED
:DEGREES
135
root 1.608762275506409 17.9946027940585 59.32439501953528 -2.948697960032742 0.8966410440663475 1.5243135349160828
lfemur 10.552688337551762 -4.540075162478118 -26.38045576165042
ltibia 23.51124127010699
lfoot -2.9386283511178934 -6.437433505031327
ltoes -10.324926977923049
rfemur -24.673947215216472 -1.4078576786817072 21.51758589030125
rtibia 36.27872662706652
rfoot -5.949152044292348 -4.769620453728377
rtoes 2.8318164494414155
lowerback 10.234724410745788 -1.841724430309703 -3.2013208930708537
upperback -0.2927356804619972 -2.894984364277321 1.4590559753439676
thorax -5.831060100378372 -1.3519116550649075 4.140806671356274
lowerneck -16.72407425041026 -3.250237123913813 -1.7749105442356259
upperneck 21.920736388130877 -4.346442983247851 1.5800711698769472
head 9.88443463253322 -2.012154861711293 0.3264067212514266
lclavicle -2.5112651592965084e-15 -2.7320829572474204e-15
lhumerus -28.60223904208344 0.6120572741317072 81.75553742217588
lradius 23.675867608209288
lwrist 9.731627285174334
lhand -29.1760768722713 19.01365134056428
lfingers nan
lthumb -2.5395282572666416 48.84425281822333
rclavicle -2.488799146826191e-15 -2.720921045796156e-15
rhumerus -32.68757834490554 -22.01892261629518 -76.83791647410733
rradius 33.034820092611724
rwrist 2.2302453107538285
rhand -17.77586228156351 21.69912026486564
rfingers nan
rthumb 8.379871379414176 -7.839326370371014
136
root 1.6111128309698257 17.980464400418374 58.704850072142705 -3.013754159740085 0.6284061285993539 0.7837296967416822
lfemur 10.736676087755908 -4.414873516334092 -25.43274861687265
ltibia 25.95409006484689
lfoot -2.9488853936525663 -6.1632202783211945
ltoes -9.322917558044805
rfemur -24.50696458180966 -1.20362636480965 22.61411118061027
rtibia 33.66712744616872
rfoot -6.1394526489704715 -6.1175028621095695
rtoes 2.7776762814663516
lowerback 10.22287457184545 -1.9419913477295714 -2.812230430452396
upperback -0.2916337260898111 -2.9652687224583225 1.6137944693956716
thorax -5.807084516228193 -1.4028073294268657 4.159693993988324
lowerneck -16.65755869406845 -3.1688449506428937 -1.8544023610082387
upperneck 22.096352457007274 -4.175000719723449 1.4164017934398188
head 9.928859225376469 -1.9588689469267806 0.3072125660896001
lclavicle -2.514157329734054e-15 -2.732808520368303e-15
lhumerus -28.890532700630956 1.0186484205392397 81.9085547771065
lradius 23.367229079089828
lwrist 9.950158299946008
lhand -29.24739916195148 18.949006519860408
lfingers nan
lthumb -2.622605868946202 48.718298466019014
rclavicle -2.488669570280196e-15 -2.720113185452122e-15
rhumerus -32.49145755997337 -21.946234040942347 -76.65935809089223
rradius 33.07976793290998
rwrist 2.2811978489062454
rhand -17.754456434234935 21.740372698476463
rfingers nan
rthumb 8.356437284544203 -7.88520909203002
137
root 1.605216626665432 17.96703237081396 58.13415860528728 -2.969480976113206 0.3023911444515356 -0.4972253909648341
lfemur 10.219384096466436 -4.0425341961972325 -23.676817656300624
ltibia 29.20108137216243
lfoot -3.496521449262937 -5.698567846953361
ltoes -9.016223577213177
rfemur -24.0173868953219 -0.607764669027477 24.146395905394304
rtibia 32.05961761836269
rfoot -6.503740416058683 -7.595612997145177
rtoes 3.1634033834844746
lowerback 10.220114103327058 -1.9711920507918321 -1.9283430339895393
upperback -0.32684840332113235 -2.890336411845991 1.8475294476068114
thorax -5.8399357141903385 -1.3427061802096354 4.227335680960427
lowerneck -16.634270709781347 -3.1160438188101702 -1.8941430872482115
upperneck 22.208127822740266 -4.0554589072107845 1.275640587784864
head 9.952226548878599 -1.9249356728610563 0.2835696100171684
lclavicle -2.515309135888697e-15 -2.733422527440097e-15
lhumerus -29.21238298880973 1.4575639932179847 82.03477682573485
lradius 23.18010092409046
lwrist 10.21727568857478
lhand -29.359744750676835 18.86814267534523
lfingers nan
lthumb -2.7266934221197268 48.64979541795313
rclavicle -2.4877253380921663e-15 -2.719490225419395e-15
rhumerus -32.24387928196004 -21.84596157297765 -76.46130734638693
rradius 33.09913892192271
rwrist 2.3191407568647007
rhand -17.78414116455133 21.69140775556015
rfingers nan
rthumb 8.38379801586458 -7.822008853558087
138
root 1.5768977210900421 17.946837548289995 57.27524974682071 -3.068690504226204 -0.08607794188615209 -1.2609869286701774
lfemur 9.358842187116606 -3.518825519795346 -22.148097978001715
ltibia 32.89544254741011
lfoot -3.8277165704141765 -4.784151213839118
ltoes -8.776091797776465
rfemur -23.00358913386285 -0.07284774771572611 25.109053902355463
rtibia 31.15681368184042
rfoot -7.232205520716477 -8.777866938734139
rtoes 3.7214705859848705
lowerback 10.261399863356422 -1.9316286030291046 -1.4562477074419837
upperback -0.3435974645591335 -2.780397995241568 1.98696529667035
thorax -5.89067217601217 -1.3113945219791387 4.1639929937902185
lowerneck -16.651090728040284 -3.0871669097495777 -1.8863110749921157
upperneck 22.237744581407505 -3.984940394228925 1.1692040377522144
head 9.947482378392207 -1.9082303797768498 0.2604812943955574
lclavicle -2.516179052161087e-15 -2.7338168910356766e-15
lhumerus -29.61635869196464 1.8667179005490888 82.11480693596079
lradius 23.124645411912322
lwrist 10.531268625151348
lhand -29.457754404527677 18.851918684346785
lfingers nan
lthumb -2.824895462366325 48.624674440560675
rclavicle -2.487394252087519e-15 -2.7192147039567017e-15
rhumerus -32.0218654491328 -21.784139704147563 -76.27649899918272
rradius 33.100672000095535
rwrist 2.340625609276458
rhand -17.771603697910866 21.718000244468264
rfingers nan
rthumb 8.362111103824997 -7.860855142841594
139
root 1.5576491809167616 17.91308348280451 56.732386556623624 -3.5398497312511816 -0.45403799710311044 -1.367134533914837
lfemur 8.307549486505524 -2.9527395497426414 -21.078905663534158
ltibia 36.84773880425345
lfoot -4.4335248493954715 -4.2705585558780585
ltoes -8.612093349456044
rfemur -21.850519851770812 0.10731452764925553 25.38443549872302
rtibia 31.010458865807177
rfoot -8.38196984631821 -9.553499407716048
rtoes 4.041310192728606
lowerback 10.335935163545448 -1.789967250134081 -1.39337416190096
upperback -0.29792401569252475 -2.612818388586821 2.0355143394354123
thorax -5.883525031751221 -1.2225479308954295 4.13524386546155
lowerneck -16.697871975821027 -3.0858839197261645 -1.853250272396843
upperneck 22.18189355820951 -3.970934983201343 1.1052912617863475
head 9.914241062622988 -1.9102160438813718 0.23872879565168
lclavicle -2.516870676878785e-15 -2.7344971114244547e-15
lhumerus -30.05671250045874 2.1771824408651748 82.16142052211897
lradius 23.19453527767061
lwrist 10.82171947721905
lhand -29.566865349359627 18.782612720040305
lfingers nan
lthumb -2.9089115927096056 48.59961501624963
rclavicle -2.487147663218129e-15 -2.719271093708886e-15
rhumerus -31.719786057903043 -21.685826526086686 -76.0863787082898
rradius 33.08611608261826
rwrist 2.342738157138357
rhand -17.805517976862948 21.663037908169784
rfingers nan
rthumb 8.393705762062549 -7.794236298191758
140
root 1.5385448138213809 17.885046618673368 56.98494899108225 -3.763485919783837 -0.34101203324486357 -2.0359632008992206
lfemur 6.325768853542829 -2.4898306803872106 -19.446115104662493
ltibia 41.425670733472344
lfoot -4.636088363145554 -3.2333451375774023
ltoes -9.19051312233757
rfemur -20.817445883698685 0.1003585530588258 25.906517560170904
rtibia 31.467363383889097
rfoot -9.667147493262934 -10.146911679817464
rtoes 3.7760664259174823
lowerback 10.349945797063718 -1.675457315881177 -0.8267836944286502
upperback -0.2777894300648286 -2.323816505182068 2.1803007971551094
thorax -5.922859359137716 -1.1079080674128874 3.896470265327623
lowerneck -16.750908090863383 -3.1049575430124436 -1.8025063704868378
upperneck 22.062114407651517 -3.99780258369272 1.0719860320354602
head 9.85794219800928 -1.925637035457917 0.21716000078316897
lclavicle -2.517980729881867e-15 -2.73538594316266e-15
lhumerus -30.499073247178455 2.4211049519715093 82.17530099061803
lradius 23.36168867637739
lwrist 11.034146258787507
lhand -29.659972795993372 18.70545126736518
lfingers nan
lthumb -2.9835541749411094 48.55553522788812
rclavicle -2.487850002515922e-15 -2.7198992701854616e-15
rhumerus -31.40220872247375 -21.572432629040215 -75.93194296792895
rradius 33.06906904178718
rwrist 2.3282900539161693
rhand -17.79434931145679 21.69334201083295
rfingers nan
rthumb 8.375023502272578 -7.827431043491657
